# xmcd
#
# Track frame offsets:
#	150
#	11232
#	35416
#	56143
#	68964
#	84611
#	102344
#	117944
#	139135
#	157794
#	172521
#	195279
#	209116
#
# Disc length: 3033 seconds
#
# Revision: 1
# Processed by: cddbd v1.5.2PL0 Copyright (c) Steve Scherf et al.
# Submitted via: audiograbber 1.83.01
#
DISCID=ae0bd70d
DTITLE=Bill Helferich and Keni Lee Burgess - Long Row To Hoe
DYEAR=1900
DGENRE=
TTITLE0=Party Dress Blues
TTITLE1=Travelin' Man Blues
TTITLE2=Serenity Rag
TTITLE3=Long Row To Hoe
TTITLE4=2 AM Blues
TTITLE5=Dead Drunk. Half Blind
TTITLE6=Juke Joint Jones
TTITLE7=Back Door Woman Blues
TTITLE8=Pickin' Flowers In The Rain
TTITLE9=Midnight Angel
TTITLE10=Mississippi Stomp Down
TTITLE11=Jelly Roll Mama
TTITLE12=Redemption Blues
EXTD=
EXTT0=
EXTT1=
EXTT2=
EXTT3=
EXTT4=
EXTT5=
EXTT6=
EXTT7=
EXTT8=
EXTT9=
EXTT10=
EXTT11=
EXTT12=
PLAYORDER=
